<?xml version="1.0" standalone="no"?>
<!DOCTYPE svg PUBLIC "-//W3C//DTD SVG 20010904//EN"
 "http://www.w3.org/TR/2001/REC-SVG-20010904/DTD/svg10.dtd">
<svg version="1.0" xmlns="http://www.w3.org/2000/svg"
 width="1200.000000pt" height="1200.000000pt" viewBox="0 0 1200.000000 1200.000000"
 preserveAspectRatio="xMidYMid meet">
<metadata>
Created by potrace 1.11, written by Peter Selinger 2001-2013
</metadata>
<g transform="translate(0.000000,1200.000000) scale(0.100000,-0.100000)"
fill="#000000" stroke="none">
<path d="M6100 10643 c-46 -12 -70 -13 -145 -4 -95 12 -245 7 -330 -9 -27 -6
-95 -14 -150 -19 -151 -13 -413 -51 -475 -68 -30 -8 -94 -32 -143 -54 -48 -21
-94 -39 -101 -39 -8 0 -30 -9 -48 -19 -18 -11 -73 -36 -123 -56 -49 -21 -126
-54 -169 -74 -43 -20 -80 -34 -81 -31 -1 3 -9 -3 -19 -12 -10 -10 -24 -18 -32
-18 -8 0 -33 -14 -56 -30 -23 -17 -51 -30 -63 -28 -24 3 -48 -10 -40 -22 3 -4
-9 -13 -25 -18 -16 -6 -45 -22 -62 -35 -31 -23 -273 -154 -273 -148 0 1 -12 0
-27 -4 -16 -4 -26 -11 -23 -15 5 -8 -33 -26 -47 -22 -5 1 -8 -2 -8 -7 0 -5
-15 -15 -32 -22 -18 -7 -53 -27 -77 -44 -23 -16 -50 -34 -59 -40 -9 -5 -37
-26 -63 -45 -25 -19 -59 -44 -75 -55 -85 -59 -465 -429 -674 -655 -180 -195
-245 -264 -301 -319 -31 -31 -74 -78 -95 -106 -21 -27 -49 -59 -61 -70 -13
-11 -33 -34 -45 -52 -13 -17 -58 -74 -101 -125 -42 -51 -81 -97 -85 -103 -4
-5 -22 -29 -40 -51 -17 -23 -32 -47 -32 -53 0 -6 -4 -11 -9 -11 -6 0 -42 -48
-82 -107 -40 -60 -79 -115 -87 -123 -20 -20 -142 -207 -142 -217 0 -5 -10 -24
-23 -43 -13 -19 -45 -84 -72 -145 -26 -60 -52 -114 -56 -119 -5 -6 -9 -18 -9
-27 0 -10 -4 -19 -8 -21 -4 -1 -22 -43 -41 -93 -18 -49 -63 -153 -101 -230
-71 -143 -110 -231 -110 -246 0 -5 -13 -37 -30 -71 -16 -34 -30 -67 -30 -75 0
-7 -9 -27 -20 -45 -11 -18 -20 -39 -20 -46 0 -8 -7 -28 -14 -45 -43 -92 -81
-230 -96 -343 -6 -43 -20 -108 -32 -144 -11 -36 -24 -81 -28 -100 -4 -19 -21
-87 -38 -151 -41 -158 -56 -286 -48 -422 3 -62 8 -233 11 -381 2 -148 7 -271
10 -274 3 -3 6 98 7 224 3 308 3 337 -9 424 -21 155 18 375 132 740 19 58 37
123 40 145 4 22 9 47 10 56 7 36 121 349 157 429 6 14 12 27 12 30 2 12 35 87
106 245 43 94 81 181 85 195 13 44 127 313 161 382 70 139 326 519 464 688 8
10 24 29 34 42 11 12 33 39 50 59 17 20 51 60 76 89 58 69 74 87 403 450 192
211 551 580 707 726 73 67 239 194 315 240 28 17 95 52 150 78 55 27 145 73
200 104 55 31 143 80 195 109 116 65 304 156 385 188 33 13 155 62 271 109
186 76 224 88 320 101 60 9 143 22 184 30 41 9 124 18 185 21 60 4 120 10 133
15 42 16 273 23 344 10 56 -10 79 -9 139 5 151 34 456 -10 625 -91 87 -42 93
-47 109 -90 12 -29 24 -45 35 -45 23 0 148 -43 245 -85 44 -18 132 -48 195
-65 136 -37 152 -42 250 -86 41 -18 131 -56 200 -84 181 -74 420 -194 535
-268 76 -49 136 -101 255 -221 191 -191 307 -294 320 -286 12 7 -4 26 -38 44
-12 6 -41 29 -63 49 -23 20 -53 47 -67 60 -14 12 -28 22 -32 22 -12 0 -90 107
-83 114 4 3 0 6 -8 6 -8 0 -58 43 -112 95 -54 52 -108 97 -120 101 -12 4 -33
15 -47 26 -48 36 -115 78 -127 78 -7 0 -13 5 -13 10 0 6 -7 10 -15 10 -15 0
-135 59 -145 71 -3 3 -21 11 -41 18 -20 6 -53 20 -74 31 -22 11 -45 20 -53 20
-7 0 -10 5 -7 10 4 6 -6 10 -24 10 -16 0 -32 4 -36 9 -3 5 -22 15 -43 22 -20
6 -79 31 -130 55 -51 24 -104 47 -117 50 -14 3 -25 10 -25 15 0 5 -14 9 -30 9
-57 0 -203 50 -375 128 -61 28 -123 52 -140 54 -22 2 -37 14 -58 45 -83 125
-543 233 -747 176z"/>
<path d="M5827 9872 c-31 -7 -15 -37 21 -40 17 -2 32 1 32 6 0 16 -35 39 -53
34z"/>
<path d="M5673 9763 c13 -13 -151 -69 -285 -98 -16 -3 -28 -12 -28 -20 0 -12
14 -15 66 -15 77 0 162 32 232 87 45 36 53 53 25 53 -9 0 -13 -3 -10 -7z"/>
<path d="M6055 9694 c50 -44 128 -68 214 -65 47 1 35 10 -46 31 -37 10 -93 30
-123 44 -76 36 -93 32 -45 -10z"/>
<path d="M5108 9656 c-36 -12 -78 -30 -92 -39 -15 -10 -45 -17 -75 -17 -48 0
-49 -1 -82 -52 -18 -29 -48 -77 -68 -106 -20 -29 -40 -60 -46 -69 -5 -10 -16
-23 -22 -31 -7 -7 -16 -18 -20 -25 -18 -27 -193 -166 -242 -191 -16 -9 -32
-24 -35 -34 -7 -22 -1 -100 8 -110 10 -9 276 266 276 285 0 8 5 11 10 8 6 -3
10 -1 10 4 0 6 8 19 18 29 9 9 43 51 74 92 114 149 117 152 188 161 63 9 255
88 255 106 0 17 -92 11 -157 -11z"/>
<path d="M6457 9654 c-14 -5 -16 -9 -6 -20 6 -8 20 -14 30 -14 11 0 59 -18
107 -40 107 -50 117 -55 167 -91 106 -77 145 -105 165 -119 12 -8 36 -27 54
-42 17 -15 34 -28 39 -28 12 0 7 43 -7 69 -16 28 -103 92 -166 121 -25 12 -60
29 -79 38 -49 24 -163 92 -182 108 -17 15 -93 26 -122 18z"/>
<path d="M6359 9457 c-65 -34 -94 -92 -94 -182 1 -172 137 -305 312 -305 110
0 163 49 171 160 4 62 2 73 -29 131 -45 85 -151 191 -205 207 -62 18 -106 15
-155 -11z m147 -103 c8 -19 12 -45 8 -57 -25 -84 -114 -71 -114 16 0 49 23 77
62 77 24 0 32 -6 44 -36z m179 -178 c-13 -84 -26 -98 -43 -48 -9 27 -8 51 4
112 l6 25 19 -24 c16 -19 19 -33 14 -65z"/>
<path d="M5044 9399 c-78 -41 -98 -60 -145 -146 -74 -134 -85 -229 -37 -315
28 -48 65 -63 163 -63 66 1 91 6 140 29 74 34 99 57 133 121 25 45 27 60 26
156 0 93 -3 112 -26 155 -52 100 -142 122 -254 63z m129 -76 c14 -48 -17 -107
-60 -111 -60 -6 -84 72 -38 122 19 21 33 27 57 24 27 -2 34 -9 41 -35z m-248
-219 c-3 -24 -10 -44 -15 -44 -19 0 -21 48 -4 86 20 47 30 27 19 -42z"/>
<path d="M8872 9292 c6 -13 179 -172 359 -328 31 -27 141 -137 245 -244 104
-107 251 -256 327 -330 226 -221 457 -543 567 -790 21 -47 59 -132 85 -190 26
-58 64 -150 85 -205 40 -107 108 -250 116 -242 2 2 -9 31 -25 63 -40 81 -60
130 -78 188 -8 27 -26 73 -39 102 -13 29 -24 55 -24 58 0 3 -22 51 -48 108
-27 57 -57 123 -67 148 -11 25 -22 47 -25 50 -3 3 -15 25 -27 50 -32 65 -56
104 -70 113 -7 4 -13 12 -13 17 0 12 -92 146 -137 201 -13 15 -23 31 -23 36 0
5 -12 22 -27 39 -16 16 -37 43 -47 59 -11 17 -45 56 -75 88 -31 32 -59 67 -63
78 -4 11 -12 18 -17 15 -5 -3 -21 10 -35 29 -15 19 -31 34 -35 32 -5 -1 -50
41 -101 93 -245 254 -433 439 -589 579 -94 85 -171 158 -171 162 0 5 -7 9 -15
9 -8 0 -15 5 -15 10 0 6 -5 10 -11 10 -6 0 -9 -3 -7 -8z"/>
<path d="M7130 9158 c0 -16 89 -111 118 -127 25 -13 82 -15 82 -2 0 5 -16 16
-35 25 -19 9 -55 35 -80 56 -59 51 -85 65 -85 48z"/>
<path d="M5540 8481 c-122 -15 -225 -33 -240 -42 -17 -11 160 -6 345 10 180
16 352 13 511 -9 193 -28 361 -39 401 -28 55 15 37 21 -40 15 -57 -5 -114 0
-253 23 -155 26 -211 31 -419 34 -132 3 -269 1 -305 -3z"/>
<path d="M5726 8128 c-7 -4 -46 -12 -87 -17 -41 -6 -99 -18 -129 -27 -145 -42
-261 -53 -457 -44 -140 7 -138 -4 17 -73 154 -68 161 -69 253 -52 45 8 116 14
157 14 41 -1 95 4 120 11 28 7 72 9 115 6 72 -7 125 4 156 30 21 19 69 18 97
-2 17 -12 35 -14 67 -10 28 5 66 1 107 -10 47 -12 83 -14 140 -9 57 5 94 2
144 -11 51 -13 87 -15 153 -9 47 4 127 8 176 9 57 1 103 8 125 18 19 9 42 19
50 21 9 4 7 6 -7 6 -13 1 -23 5 -23 10 0 5 -44 12 -97 14 -54 3 -123 10 -153
15 -30 5 -98 17 -150 26 -181 31 -205 35 -295 46 -49 7 -133 19 -185 28 -97
17 -271 23 -294 10z"/>
<path d="M6918 7993 c7 -3 16 -2 19 1 4 3 -2 6 -13 5 -11 0 -14 -3 -6 -6z"/>
<path d="M6965 7980 c-3 -5 -1 -10 4 -10 6 0 11 5 11 10 0 6 -2 10 -4 10 -3 0
-8 -4 -11 -10z"/>
<path d="M10686 6894 c15 -32 44 -99 65 -149 20 -49 62 -139 92 -200 30 -60
58 -121 62 -135 10 -34 87 -201 91 -197 4 4 -19 64 -49 127 -15 30 -27 61 -27
69 0 7 -8 30 -18 50 -97 190 -118 234 -138 286 -12 33 -34 84 -48 112 -14 29
-26 57 -26 62 0 5 -7 14 -16 22 -10 8 -6 -7 12 -47z"/>
<path d="M11000 6197 c0 -3 27 -78 61 -167 33 -89 69 -204 80 -257 11 -52 27
-113 35 -135 8 -22 21 -110 30 -195 13 -131 14 -200 6 -466 -6 -177 -15 -324
-21 -341 -6 -16 -18 -79 -26 -140 -29 -211 -108 -483 -171 -583 -18 -28 -47
-80 -65 -115 -56 -109 -133 -198 -272 -314 -48 -41 -102 -80 -120 -88 -51 -22
-71 -46 -96 -121 -37 -106 -46 -118 -136 -179 -33 -23 -68 -36 -103 -41 -36
-5 -60 -14 -75 -30 -41 -43 -98 -67 -178 -74 -46 -4 -86 -13 -103 -24 -51 -34
-134 -39 -186 -12 -32 17 -100 75 -70 60 8 -4 2 4 -15 18 -29 25 -29 26 -5 20
22 -6 24 -5 11 10 -7 9 -9 17 -3 17 6 0 8 16 5 40 -3 23 -1 40 4 40 17 0 -13
93 -39 122 -39 43 -66 37 -129 -30 -73 -78 -100 -112 -91 -112 4 0 0 -5 -8
-10 -42 -27 -171 5 -229 57 -11 10 -38 33 -59 51 -22 18 -42 42 -45 53 -3 10
-1 17 4 13 5 -3 9 -1 9 3 0 5 14 10 31 11 37 3 94 62 60 62 -14 0 -153 94
-175 119 -15 16 -31 21 -68 21 -96 0 -220 85 -302 209 -25 36 -62 84 -83 106
-50 51 -173 213 -173 227 0 6 -6 19 -14 27 -7 9 -24 45 -36 81 -13 36 -29 72
-36 80 -12 12 -16 12 -29 -5 -37 -49 -106 -170 -112 -196 -6 -30 -2 -41 67
-224 20 -55 43 -116 49 -135 101 -288 138 -391 216 -600 25 -69 51 -141 57
-160 14 -44 16 -225 4 -347 -6 -66 -6 -93 2 -93 6 0 10 8 10 18 -1 41 16 158
25 170 6 8 6 12 -2 12 -8 0 -7 7 3 22 10 17 12 36 6 73 -5 28 -12 70 -15 95
-7 41 -61 201 -99 292 -9 21 -16 50 -16 66 0 15 -11 43 -25 62 -14 20 -25 47
-25 66 0 18 -5 34 -11 36 -6 2 -13 21 -16 43 -3 22 -10 43 -16 47 -6 3 -12 14
-14 22 -2 9 -4 23 -6 31 -2 8 -6 18 -10 21 -4 4 -7 22 -7 40 0 19 -6 37 -15
42 -9 4 -19 33 -25 68 -5 32 -17 64 -25 70 -8 6 -15 23 -15 37 0 14 -4 27 -9
29 -6 2 -13 19 -16 38 -3 19 -15 50 -26 68 -30 52 -27 100 10 166 18 31 39 56
47 56 14 0 72 -82 108 -153 10 -21 25 -41 32 -44 8 -3 14 -9 14 -13 0 -8 17
-29 68 -87 12 -14 22 -34 22 -44 0 -11 6 -19 14 -19 8 0 32 -21 53 -47 21 -27
41 -50 46 -51 4 -2 5 -8 1 -13 -3 -5 15 -29 40 -53 25 -24 42 -47 38 -51 -4
-5 -2 -5 5 -1 6 3 18 -2 25 -12 24 -34 137 -82 193 -82 73 0 98 -25 90 -88 -4
-26 -9 -56 -12 -67 -3 -11 -2 -17 2 -13 10 10 65 -73 58 -87 -4 -5 -3 -7 2 -3
4 4 14 0 23 -8 8 -9 40 -34 71 -57 31 -23 58 -44 61 -47 3 -3 12 -7 20 -9 8
-2 40 -11 70 -19 68 -19 104 -11 139 30 55 66 61 70 77 57 8 -6 14 -17 14 -25
0 -26 71 -133 114 -171 99 -87 200 -107 286 -56 37 21 59 26 122 28 79 1 95 8
179 76 14 11 45 23 70 25 104 12 212 108 248 221 27 83 32 90 99 131 166 101
364 311 428 452 6 14 25 54 42 90 54 117 119 352 148 535 8 50 19 115 24 145
5 30 12 98 15 150 4 52 11 117 16 143 5 26 9 142 9 256 0 221 -24 444 -56 526
-9 22 -20 50 -25 63 -5 13 -9 34 -9 47 0 27 -47 167 -104 309 -33 82 -46 109
-46 93z"/>
<path d="M855 4535 c3 -71 9 -146 14 -165 5 -19 19 -80 31 -135 13 -55 31
-116 40 -135 10 -19 28 -69 40 -110 26 -88 90 -225 139 -295 48 -71 119 -162
145 -188 50 -50 153 -133 186 -150 19 -10 66 -39 104 -65 59 -41 74 -57 110
-125 66 -125 128 -177 235 -198 25 -5 58 -22 78 -40 44 -38 72 -49 131 -49 33
0 64 -9 104 -30 73 -39 196 -52 244 -27 43 22 117 109 160 187 19 35 30 45 49
45 14 0 25 -3 25 -7 0 -18 65 -68 89 -69 90 -5 155 23 255 113 67 59 97 125
102 222 1 39 3 73 3 76 1 3 25 5 54 4 40 0 62 6 97 28 24 16 50 26 57 24 7 -3
13 2 13 10 0 8 4 13 10 9 12 -8 50 16 50 33 0 11 31 50 83 104 9 10 17 21 17
25 0 3 11 21 25 39 14 18 25 38 25 44 0 6 8 14 19 18 35 14 91 66 91 85 0 11
14 35 30 54 17 18 31 39 31 46 4 38 25 87 39 87 5 0 9 -3 8 -7 -3 -10 31 -59
38 -55 2 1 16 -11 30 -28 14 -16 23 -30 19 -30 -3 0 1 -7 9 -16 20 -19 20 -60
1 -98 -8 -15 -15 -38 -15 -50 0 -13 -3 -26 -7 -30 -7 -7 -8 -10 -19 -61 -4
-16 -12 -37 -19 -45 -7 -8 -16 -31 -20 -50 -11 -57 -55 -203 -71 -233 -8 -16
-14 -38 -14 -49 0 -11 -9 -57 -20 -102 -11 -44 -22 -98 -25 -119 -3 -21 -10
-35 -14 -32 -8 4 -22 -43 -27 -90 -1 -11 -9 -52 -18 -92 -23 -105 -40 -377
-25 -420 6 -19 8 -41 5 -49 -3 -8 -2 -13 2 -10 5 3 22 -22 37 -54 16 -33 39
-70 52 -81 12 -12 20 -26 16 -32 -3 -6 -2 -7 4 -4 14 9 65 -97 57 -119 -5 -16
-4 -17 6 -4 9 12 10 8 4 -20 -12 -50 -9 -150 6 -194 11 -35 63 -96 81 -96 4 0
21 -12 38 -26 24 -20 46 -27 94 -31 46 -4 70 -12 91 -30 17 -14 41 -29 55 -35
40 -15 161 -36 155 -26 -6 9 10 11 19 2 13 -14 83 -11 114 5 28 13 38 14 65 2
103 -41 286 -58 351 -32 15 6 27 7 27 3 0 -4 14 -7 31 -8 20 -1 26 2 17 7 -9
6 -8 9 7 9 12 0 25 -4 30 -9 15 -14 98 6 124 30 11 11 21 16 21 10 0 -5 6 -11
13 -14 18 -7 196 39 216 56 23 19 76 43 102 46 5 0 8 5 5 9 -2 4 5 9 17 9 12
1 30 12 40 25 9 13 29 39 45 58 15 19 26 40 25 48 0 8 5 11 14 8 11 -5 13 -1
8 17 -3 12 -3 18 2 12 10 -12 55 -16 47 -4 -3 5 -1 9 5 9 12 0 26 36 30 77 0
7 7 12 13 10 7 -1 14 8 16 21 2 12 8 22 13 22 6 0 7 5 4 10 -3 5 -1 10 5 10 7
0 10 7 6 15 -3 8 -1 15 5 15 6 0 7 5 4 10 -3 6 1 10 9 10 10 0 16 9 16 21 0
15 -4 19 -16 15 -9 -3 -18 -6 -20 -6 -2 0 -4 -7 -4 -15 0 -22 -48 -15 -54 8
-2 10 -2 16 1 13 6 -6 29 21 33 39 1 6 6 15 11 21 5 7 12 23 14 35 3 13 9 25
15 27 6 2 8 8 4 13 -3 5 0 9 6 9 6 0 9 4 6 8 -3 4 0 28 5 52 11 47 2 173 -11
165 -8 -5 -20 52 -20 95 0 20 2 22 10 10 14 -22 12 2 -4 52 -9 27 -14 85 -14
151 0 92 2 109 16 113 10 3 35 14 58 25 73 34 124 49 124 37 0 -6 3 -8 7 -5 3
4 16 0 29 -8 12 -8 48 -28 80 -46 52 -28 65 -31 112 -25 29 4 69 13 89 21 46
19 69 19 77 -1 10 -25 6 -30 -8 -11 -13 17 -16 17 -50 1 -30 -15 -34 -20 -23
-32 9 -12 9 -16 0 -19 -9 -3 -10 -10 -3 -24 13 -23 30 -25 30 -4 0 8 7 15 15
15 15 0 18 -9 16 -40 0 -8 6 -1 13 15 l14 30 7 -37 c4 -20 2 -67 -4 -105 -6
-37 -12 -103 -14 -145 -1 -43 -6 -78 -10 -78 -13 0 3 -169 21 -230 9 -30 17
-81 17 -112 1 -61 14 -84 116 -213 22 -27 61 -87 87 -132 46 -80 85 -117 120
-112 27 4 81 -11 118 -33 18 -11 38 -17 44 -13 6 3 7 0 4 -10 -4 -11 -2 -14 9
-9 8 3 30 -2 49 -12 52 -27 146 -47 231 -48 42 -1 77 -4 77 -8 0 -13 167 -9
295 7 168 20 183 24 205 56 12 16 60 48 115 76 65 33 95 53 95 66 0 9 -6 17
-14 17 -14 0 -26 36 -18 58 2 7 15 12 28 12 l25 0 -21 22 c-12 13 -28 38 -37
56 -8 17 -23 32 -32 32 -9 0 -22 5 -29 12 -8 8 -22 4 -54 -18 -59 -40 -129
-74 -153 -74 -25 0 -84 -35 -91 -55 -11 -26 -61 13 -83 65 -11 26 -27 52 -34
59 -21 17 -59 -1 -94 -44 -38 -46 -74 -65 -124 -65 -35 0 -43 5 -84 58 -25 31
-68 103 -97 160 -28 56 -54 102 -58 102 -4 0 -13 -13 -20 -30 -7 -16 -16 -30
-21 -30 -5 0 -9 -6 -9 -14 0 -25 -74 -96 -106 -102 -40 -8 -89 33 -140 117
-37 59 -47 68 -59 49 -10 -15 -35 -12 -35 5 0 8 -6 15 -13 15 -31 0 -46 71
-50 235 -3 121 -8 169 -20 199 -9 21 -14 48 -11 61 3 13 1 33 -6 44 -6 12 -18
63 -26 114 -23 147 -17 137 -73 137 -27 0 -66 -6 -87 -14 -22 -7 -68 -17 -102
-21 -70 -8 -92 -1 -181 52 -60 36 -74 36 -153 -4 -27 -13 -48 -21 -48 -19 0 2
-17 0 -37 -5 -21 -5 -49 -12 -63 -15 -44 -8 -50 -13 -50 -40 0 -15 -7 -65 -16
-112 -8 -46 -13 -89 -11 -96 8 -20 -13 -126 -29 -151 -9 -13 -13 -28 -10 -34
4 -5 7 -59 7 -119 1 -88 -3 -118 -19 -153 -17 -40 -58 -88 -68 -81 -14 8 -28
-6 -63 -66 -43 -74 -86 -112 -127 -112 -36 0 -95 62 -130 137 l-27 56 -18 -24
c-10 -13 -22 -33 -25 -44 -14 -45 -112 -202 -150 -242 -35 -37 -46 -43 -82
-43 -36 0 -47 6 -98 55 -31 31 -64 55 -73 53 -8 -2 -28 -28 -43 -58 -44 -84
-88 -110 -101 -59 -6 23 -45 39 -95 39 -20 0 -50 7 -66 15 -16 9 -37 13 -47
10 -9 -3 -20 -1 -24 5 -11 18 -33 11 -71 -24 -30 -28 -36 -38 -30 -60 5 -22 2
-28 -19 -36 -14 -5 -25 -13 -25 -17 0 -14 -53 -34 -60 -22 -4 5 -5 54 -2 108
l5 98 -75 27 c-100 37 -120 33 -133 -21 -14 -56 -28 -71 -51 -52 -16 12 -17
12 -11 -3 3 -10 2 -20 -3 -23 -6 -4 -10 6 -10 20 0 21 -4 26 -16 21 -15 -6
-15 -4 -3 11 9 11 10 14 1 9 -22 -13 -32 37 -20 102 11 58 10 61 -22 118 -18
33 -47 77 -65 99 -76 94 -90 153 -82 353 3 86 9 168 12 182 3 14 7 45 11 70 3
25 16 81 30 125 13 44 30 109 38 145 30 137 67 261 175 588 58 175 59 165 -23
260 -25 30 -52 63 -60 74 -8 11 -20 18 -28 16 -7 -2 -40 -58 -73 -124 -53
-104 -64 -120 -91 -126 -21 -5 -37 -20 -53 -50 -36 -66 -129 -185 -170 -217
-20 -16 -60 -41 -89 -56 -45 -24 -59 -26 -106 -21 -35 5 -56 3 -61 -3 -3 -6
-40 -36 -81 -66 -41 -30 -74 -57 -74 -59 0 -1 7 -17 15 -33 11 -22 24 -32 45
-35 16 -3 31 0 33 5 6 18 37 16 37 -2 0 -41 -65 -125 -135 -173 -119 -82 -191
-89 -242 -21 -16 20 -37 46 -48 57 -12 12 -28 33 -38 48 -25 40 -62 61 -92 54
-43 -11 -59 -58 -61 -178 -1 -60 2 -108 7 -108 28 0 -21 -63 -60 -78 -38 -14
-152 3 -212 31 -36 18 -73 27 -104 27 -49 0 -94 21 -145 65 -14 12 -41 25 -60
28 -74 11 -127 44 -177 107 -26 34 -55 82 -65 106 -9 25 -22 51 -28 59 -6 7
-64 44 -128 82 -153 90 -248 183 -364 359 -100 149 -111 173 -183 384 -55 160
-87 312 -104 485 l-10 100 4 -130z m4742 -2047 c-3 -7 -5 -2 -5 12 0 14 2 19
5 13 2 -7 2 -19 0 -25z m717 -67 c1 -16 -2 -27 -6 -24 -5 2 -8 18 -8 35 0 39
13 29 14 -11z m1222 -836 c-14 -13 -43 -26 -64 -29 -29 -5 -32 -4 -12 3 16 6
-13 8 -85 6 l-110 -4 102 9 c56 5 117 16 135 24 51 22 64 19 34 -9z m61 19
c-3 -3 -12 -4 -19 -1 -8 3 -5 6 6 6 11 1 17 -2 13 -5z"/>
<path d="M9001 3244 c0 -11 3 -14 6 -6 3 7 2 16 -1 19 -3 4 -6 -2 -5 -13z"/>
<path d="M8442 2420 c0 -14 2 -19 5 -12 2 6 2 18 0 25 -3 6 -5 1 -5 -13z"/>
<path d="M8431 2373 c0 -12 -4 -30 -7 -40 -5 -17 -5 -17 6 0 6 10 9 28 7 40
-4 22 -4 22 -6 0z"/>
<path d="M8397 2278 c-10 -17 -16 -33 -13 -35 2 -3 12 9 21 27 21 41 15 48 -8
8z"/>
<path d="M8366 2213 c-4 -9 -3 -20 1 -24 4 -4 9 3 9 17 2 28 -1 31 -10 7z"/>
<path d="M8345 2168 c-2 -7 -11 -59 -20 -116 -12 -83 -19 -107 -40 -130 -14
-15 -25 -31 -25 -36 0 -6 7 -1 15 10 8 10 15 14 15 8 0 -18 -22 -29 -54 -29
-27 0 -31 5 -45 50 -15 49 -41 90 -41 65 0 -8 -8 -10 -21 -7 -12 3 -50 -3 -85
-14 -52 -16 -65 -24 -70 -44 -6 -23 13 -221 23 -237 2 -4 14 -2 26 6 12 7 54
21 92 30 93 22 125 35 119 50 -3 7 4 21 16 31 11 10 20 24 20 32 0 7 4 13 9
13 18 0 52 114 61 204 4 50 11 99 15 109 4 9 4 17 1 17 -4 0 -9 -6 -11 -12z"/>
<path d="M3703 2115 c0 -8 7 -15 15 -15 7 0 12 5 10 12 -6 18 -25 21 -25 3z"/>
<path d="M5600 1850 c0 -5 5 -10 11 -10 5 0 7 5 4 10 -3 6 -8 10 -11 10 -2 0
-4 -4 -4 -10z"/>
<path d="M5559 1783 c-13 -16 -12 -17 4 -4 16 13 21 21 13 21 -2 0 -10 -8 -17
-17z"/>
</g>
</svg>
